# xmcd
#
# Track frame offsets: 
#        150
#        16704
#        29899
#        39379
#        68225
#        88562
#        103777
#        116801
#        140001
#        153258
#        166058
#        181119
#
# Disc length: 2628 seconds
#
# Revision: 1
# Processed by: cddbd v1.5.2PL0 Copyright (c) Steve Scherf et al.
# Submitted via: ExactAudioCopy v0.99pb3
#
DISCID=970a420c
DTITLE=Krüger Brothers - Carolina Scrapbook - Disc I
DYEAR=1999
DGENRE=Bluegrass
TTITLE0=Kissimmee Kid
TTITLE1=If I Had A Sweetheart
TTITLE2=Old Bill Johnson
TTITLE3=And The Band Played Waltzing Matilda
TTITLE4=Wind In The Wheat
TTITLE5=Wild Rose Of The Mountain
TTITLE6=When You Go Walking After Midnight
TTITLE7=Chain Hoist
TTITLE8=Coon Dog
TTITLE9=Will You Be Loving Another Man
TTITLE10=Devil To Pay
TTITLE11=Take Me Back To Carolina
EXTD=
EXTT0=
EXTT1=
EXTT2=
EXTT3=
EXTT4=
EXTT5=
EXTT6=
EXTT7=
EXTT8=
EXTT9=
EXTT10=
EXTT11=
PLAYORDER=
